<svg xmlns="http://www.w3.org/2000/svg" xmlns:xlink="http://www.w3.org/1999/xlink" width="500" zoomAndPan="magnify" viewBox="0 0 375 149.999998" height="200" preserveAspectRatio="xMidYMid meet" version="1.0"><defs><g/></defs><g fill="#e4e2dd" fill-opacity="1"><g transform="translate(21.796154, 80.172771)"><g><path d="M 3.8125 -21.765625 L 3.8125 -26.390625 C 3.84375 -29.648438 4.609375 -32.253906 6.109375 -34.203125 C 7.609375 -36.160156 9.6875 -37.140625 12.34375 -37.140625 C 13.476562 -37.140625 14.5625 -36.972656 15.59375 -36.640625 C 16.625 -36.316406 17.367188 -35.984375 17.828125 -35.640625 L 18.546875 -35.1875 L 15.921875 -29.875 C 15.234375 -30.269531 14.484375 -30.46875 13.671875 -30.46875 C 12.734375 -30.46875 12.109375 -30.148438 11.796875 -29.515625 C 11.484375 -28.878906 11.328125 -27.769531 11.328125 -26.1875 L 11.328125 -21.765625 L 16.34375 -21.765625 L 16.34375 -16.046875 L 11.328125 -16.046875 L 11.328125 0 L 3.8125 0 L 3.8125 -16.046875 L 0.671875 -16.046875 L 0.671875 -21.765625 Z M 3.8125 -21.765625 "/></g></g></g><g fill="#e4e2dd" fill-opacity="1"><g transform="translate(34.100864, 80.172771)"><g><path d="M 2.546875 0 L 2.546875 -21.765625 L 10.0625 -21.765625 L 10.0625 -18.625 L 10.140625 -18.625 C 10.203125 -18.738281 10.296875 -18.878906 10.421875 -19.046875 C 10.546875 -19.222656 10.816406 -19.519531 11.234375 -19.9375 C 11.660156 -20.363281 12.113281 -20.742188 12.59375 -21.078125 C 13.082031 -21.421875 13.707031 -21.726562 14.46875 -22 C 15.226562 -22.269531 16.007812 -22.40625 16.8125 -22.40625 C 17.625 -22.40625 18.425781 -22.289062 19.21875 -22.0625 C 20.007812 -21.84375 20.59375 -21.617188 20.96875 -21.390625 L 21.5625 -21.046875 L 18.421875 -14.6875 C 17.484375 -15.476562 16.179688 -15.875 14.515625 -15.875 C 13.609375 -15.875 12.828125 -15.675781 12.171875 -15.28125 C 11.523438 -14.882812 11.066406 -14.398438 10.796875 -13.828125 C 10.523438 -13.265625 10.332031 -12.785156 10.21875 -12.390625 C 10.113281 -11.992188 10.0625 -11.679688 10.0625 -11.453125 L 10.0625 0 Z M 2.546875 0 "/></g></g></g><g fill="#e4e2dd" fill-opacity="1"><g transform="translate(51.624903, 80.172771)"><g><path d="M 4.03125 -2.6875 C 1.988281 -4.914062 0.96875 -7.640625 0.96875 -10.859375 C 0.96875 -14.085938 1.988281 -16.816406 4.03125 -19.046875 C 6.070312 -21.285156 8.660156 -22.40625 11.796875 -22.40625 C 14.679688 -22.40625 17.054688 -21.5 18.921875 -19.6875 L 18.921875 -21.765625 L 26.4375 -21.765625 L 26.4375 0 L 19.015625 0 L 19.015625 -2.46875 L 18.921875 -2.46875 C 17.054688 -0.394531 14.679688 0.640625 11.796875 0.640625 C 8.660156 0.640625 6.070312 -0.46875 4.03125 -2.6875 Z M 10.40625 -14.546875 C 9.4375 -13.585938 8.953125 -12.359375 8.953125 -10.859375 C 8.953125 -9.359375 9.414062 -8.132812 10.34375 -7.1875 C 11.28125 -6.238281 12.515625 -5.765625 14.046875 -5.765625 C 15.515625 -5.765625 16.722656 -6.242188 17.671875 -7.203125 C 18.617188 -8.171875 19.09375 -9.390625 19.09375 -10.859375 C 19.09375 -12.359375 18.601562 -13.585938 17.625 -14.546875 C 16.65625 -15.515625 15.460938 -16 14.046875 -16 C 12.597656 -16 11.382812 -15.515625 10.40625 -14.546875 Z M 10.40625 -14.546875 "/></g></g></g><g fill="#e4e2dd" fill-opacity="1"><g transform="translate(76.999166, 80.172771)"><g><path d="M 2.546875 0 L 2.546875 -21.765625 L 10.0625 -21.765625 L 10.0625 -19.484375 L 10.140625 -19.484375 C 12.097656 -21.429688 14.175781 -22.40625 16.375 -22.40625 C 17.457031 -22.40625 18.523438 -22.265625 19.578125 -21.984375 C 20.640625 -21.703125 21.660156 -21.265625 22.640625 -20.671875 C 23.617188 -20.078125 24.410156 -19.234375 25.015625 -18.140625 C 25.617188 -17.054688 25.921875 -15.789062 25.921875 -14.34375 L 25.921875 0 L 18.421875 0 L 18.421875 -12.3125 C 18.421875 -13.4375 18.054688 -14.421875 17.328125 -15.265625 C 16.609375 -16.117188 15.671875 -16.546875 14.515625 -16.546875 C 13.378906 -16.546875 12.351562 -16.109375 11.4375 -15.234375 C 10.519531 -14.359375 10.0625 -13.382812 10.0625 -12.3125 L 10.0625 0 Z M 2.546875 0 "/></g></g></g><g fill="#e4e2dd" fill-opacity="1"><g transform="translate(101.439888, 80.172771)"><g><path d="M 15.453125 -35.640625 C 17.347656 -35.640625 19.195312 -35.363281 21 -34.8125 C 22.8125 -34.269531 24.15625 -33.726562 25.03125 -33.1875 L 26.3125 -32.34375 L 23.09375 -25.96875 C 22.832031 -26.132812 22.472656 -26.351562 22.015625 -26.625 C 21.566406 -26.894531 20.71875 -27.253906 19.46875 -27.703125 C 18.226562 -28.160156 17.070312 -28.390625 16 -28.390625 C 14.664062 -28.390625 13.640625 -28.101562 12.921875 -27.53125 C 12.203125 -26.96875 11.84375 -26.207031 11.84375 -25.25 C 11.84375 -24.769531 12.007812 -24.320312 12.34375 -23.90625 C 12.6875 -23.5 13.265625 -23.0625 14.078125 -22.59375 C 14.898438 -22.125 15.625 -21.75 16.25 -21.46875 C 16.875 -21.1875 17.835938 -20.765625 19.140625 -20.203125 C 21.398438 -19.234375 23.328125 -17.921875 24.921875 -16.265625 C 26.523438 -14.617188 27.328125 -12.75 27.328125 -10.65625 C 27.328125 -8.644531 26.96875 -6.890625 26.25 -5.390625 C 25.53125 -3.890625 24.539062 -2.710938 23.28125 -1.859375 C 22.019531 -1.015625 20.625 -0.390625 19.09375 0.015625 C 17.570312 0.429688 15.914062 0.640625 14.125 0.640625 C 12.601562 0.640625 11.101562 0.484375 9.625 0.171875 C 8.15625 -0.140625 6.925781 -0.53125 5.9375 -1 C 4.945312 -1.46875 4.054688 -1.925781 3.265625 -2.375 C 2.472656 -2.832031 1.894531 -3.210938 1.53125 -3.515625 L 0.96875 -3.984375 L 4.96875 -10.6875 C 5.300781 -10.40625 5.765625 -10.046875 6.359375 -9.609375 C 6.953125 -9.171875 8.003906 -8.582031 9.515625 -7.84375 C 11.035156 -7.113281 12.375 -6.75 13.53125 -6.75 C 16.90625 -6.75 18.59375 -7.894531 18.59375 -10.1875 C 18.59375 -10.664062 18.46875 -11.109375 18.21875 -11.515625 C 17.976562 -11.929688 17.554688 -12.34375 16.953125 -12.75 C 16.347656 -13.164062 15.8125 -13.492188 15.34375 -13.734375 C 14.875 -13.972656 14.109375 -14.335938 13.046875 -14.828125 C 11.984375 -15.328125 11.195312 -15.703125 10.6875 -15.953125 C 8.570312 -17.003906 6.929688 -18.3125 5.765625 -19.875 C 4.609375 -21.445312 4.03125 -23.140625 4.03125 -24.953125 C 4.03125 -28.085938 5.1875 -30.648438 7.5 -32.640625 C 9.820312 -34.640625 12.472656 -35.640625 15.453125 -35.640625 Z M 15.453125 -35.640625 "/></g></g></g><g fill="#e4e2dd" fill-opacity="1"><g transform="translate(126.347379, 80.172771)"><g><path d="M 4.03125 -2.6875 C 1.988281 -4.914062 0.96875 -7.640625 0.96875 -10.859375 C 0.96875 -14.085938 1.988281 -16.816406 4.03125 -19.046875 C 6.070312 -21.285156 8.660156 -22.40625 11.796875 -22.40625 C 14.679688 -22.40625 17.054688 -21.5 18.921875 -19.6875 L 18.921875 -21.765625 L 26.4375 -21.765625 L 26.4375 0 L 19.015625 0 L 19.015625 -2.46875 L 18.921875 -2.46875 C 17.054688 -0.394531 14.679688 0.640625 11.796875 0.640625 C 8.660156 0.640625 6.070312 -0.46875 4.03125 -2.6875 Z M 10.40625 -14.546875 C 9.4375 -13.585938 8.953125 -12.359375 8.953125 -10.859375 C 8.953125 -9.359375 9.414062 -8.132812 10.34375 -7.1875 C 11.28125 -6.238281 12.515625 -5.765625 14.046875 -5.765625 C 15.515625 -5.765625 16.722656 -6.242188 17.671875 -7.203125 C 18.617188 -8.171875 19.09375 -9.390625 19.09375 -10.859375 C 19.09375 -12.359375 18.601562 -13.585938 17.625 -14.546875 C 16.65625 -15.515625 15.460938 -16 14.046875 -16 C 12.597656 -16 11.382812 -15.515625 10.40625 -14.546875 Z M 10.40625 -14.546875 "/></g></g></g><g fill="#e4e2dd" fill-opacity="1"><g transform="translate(151.721642, 80.172771)"><g><path d="M 2.546875 0 L 2.546875 -21.765625 L 10.0625 -21.765625 L 10.0625 -19.484375 L 10.140625 -19.484375 C 12.097656 -21.429688 14.175781 -22.40625 16.375 -22.40625 C 17.457031 -22.40625 18.523438 -22.265625 19.578125 -21.984375 C 20.640625 -21.703125 21.660156 -21.265625 22.640625 -20.671875 C 23.617188 -20.078125 24.410156 -19.234375 25.015625 -18.140625 C 25.617188 -17.054688 25.921875 -15.789062 25.921875 -14.34375 L 25.921875 0 L 18.421875 0 L 18.421875 -12.3125 C 18.421875 -13.4375 18.054688 -14.421875 17.328125 -15.265625 C 16.609375 -16.117188 15.671875 -16.546875 14.515625 -16.546875 C 13.378906 -16.546875 12.351562 -16.109375 11.4375 -15.234375 C 10.519531 -14.359375 10.0625 -13.382812 10.0625 -12.3125 L 10.0625 0 Z M 2.546875 0 "/></g></g></g><g fill="#e4e2dd" fill-opacity="1"><g transform="translate(176.162364, 80.172771)"><g><path d="M 14.125 -16.25 C 12.71875 -16.25 11.503906 -15.722656 10.484375 -14.671875 C 9.460938 -13.628906 8.953125 -12.375 8.953125 -10.90625 C 8.953125 -9.40625 9.460938 -8.128906 10.484375 -7.078125 C 11.503906 -6.035156 12.71875 -5.515625 14.125 -5.515625 C 14.8125 -5.515625 15.457031 -5.597656 16.0625 -5.765625 C 16.664062 -5.941406 17.113281 -6.113281 17.40625 -6.28125 L 17.78125 -6.53125 L 20.328125 -1.3125 C 20.128906 -1.175781 19.851562 -1 19.5 -0.78125 C 19.144531 -0.570312 18.335938 -0.285156 17.078125 0.078125 C 15.816406 0.453125 14.46875 0.640625 13.03125 0.640625 C 9.832031 0.640625 7.019531 -0.484375 4.59375 -2.734375 C 2.175781 -4.984375 0.96875 -7.679688 0.96875 -10.828125 C 0.96875 -13.992188 2.175781 -16.710938 4.59375 -18.984375 C 7.019531 -21.265625 9.832031 -22.40625 13.03125 -22.40625 C 14.46875 -22.40625 15.796875 -22.234375 17.015625 -21.890625 C 18.234375 -21.554688 19.097656 -21.21875 19.609375 -20.875 L 20.328125 -20.375 L 17.78125 -15.234375 C 16.84375 -15.910156 15.625 -16.25 14.125 -16.25 Z M 14.125 -16.25 "/></g></g></g><g fill="#e4e2dd" fill-opacity="1"><g transform="translate(193.389372, 80.172771)"><g><path d="M 2.546875 0 L 2.546875 -36.5 L 10.0625 -36.5 L 10.0625 -19.484375 L 10.140625 -19.484375 C 12.097656 -21.429688 14.175781 -22.40625 16.375 -22.40625 C 17.457031 -22.40625 18.523438 -22.265625 19.578125 -21.984375 C 20.640625 -21.703125 21.660156 -21.265625 22.640625 -20.671875 C 23.617188 -20.078125 24.410156 -19.234375 25.015625 -18.140625 C 25.617188 -17.054688 25.921875 -15.789062 25.921875 -14.34375 L 25.921875 0 L 18.421875 0 L 18.421875 -12.3125 C 18.421875 -13.4375 18.054688 -14.421875 17.328125 -15.265625 C 16.609375 -16.117188 15.671875 -16.546875 14.515625 -16.546875 C 13.378906 -16.546875 12.351562 -16.109375 11.4375 -15.234375 C 10.519531 -14.359375 10.0625 -13.382812 10.0625 -12.3125 L 10.0625 0 Z M 2.546875 0 "/></g></g></g><g fill="#e4e2dd" fill-opacity="1"><g transform="translate(217.830093, 80.172771)"><g><path d="M 24.578125 -9.84375 L 8.78125 -9.84375 C 8.78125 -8.3125 9.273438 -7.175781 10.265625 -6.4375 C 11.253906 -5.707031 12.332031 -5.34375 13.5 -5.34375 C 14.707031 -5.34375 15.664062 -5.503906 16.375 -5.828125 C 17.082031 -6.160156 17.890625 -6.804688 18.796875 -7.765625 L 24.234375 -5.046875 C 21.972656 -1.253906 18.207031 0.640625 12.9375 0.640625 C 9.65625 0.640625 6.835938 -0.484375 4.484375 -2.734375 C 2.140625 -4.984375 0.96875 -7.691406 0.96875 -10.859375 C 0.96875 -14.023438 2.140625 -16.738281 4.484375 -19 C 6.835938 -21.269531 9.65625 -22.40625 12.9375 -22.40625 C 16.394531 -22.40625 19.203125 -21.40625 21.359375 -19.40625 C 23.523438 -17.414062 24.609375 -14.566406 24.609375 -10.859375 C 24.609375 -10.347656 24.597656 -10.007812 24.578125 -9.84375 Z M 9 -14 L 17.265625 -14 C 17.097656 -15.132812 16.65625 -16.003906 15.9375 -16.609375 C 15.21875 -17.222656 14.289062 -17.53125 13.15625 -17.53125 C 11.90625 -17.53125 10.910156 -17.203125 10.171875 -16.546875 C 9.441406 -15.898438 9.050781 -15.050781 9 -14 Z M 9 -14 "/></g></g></g><g fill="#e4e2dd" fill-opacity="1"><g transform="translate(239.80966, 80.172771)"><g><path d="M 23.59375 -21.765625 L 12.8125 -5.734375 L 22.75 -5.734375 L 22.75 0 L 0.21875 0 L 10.984375 -16.046875 L 2 -16.046875 L 2 -21.765625 Z M 23.59375 -21.765625 "/></g></g></g><g fill="#e4e2dd" fill-opacity="1"><g transform="translate(260.007017, 80.172771)"><g><path d="M 7.390625 -9.078125 C 8.742188 -9.078125 9.894531 -8.601562 10.84375 -7.65625 C 11.789062 -6.707031 12.265625 -5.554688 12.265625 -4.203125 C 12.265625 -2.867188 11.789062 -1.726562 10.84375 -0.78125 C 9.894531 0.164062 8.742188 0.640625 7.390625 0.640625 C 6.054688 0.640625 4.914062 0.164062 3.96875 -0.78125 C 3.019531 -1.726562 2.546875 -2.867188 2.546875 -4.203125 C 2.546875 -5.554688 3.019531 -6.707031 3.96875 -7.65625 C 4.914062 -8.601562 6.054688 -9.078125 7.390625 -9.078125 Z M 7.390625 -9.078125 "/></g></g></g><g fill="#e4e2dd" fill-opacity="1"><g transform="translate(271.208447, 80.172771)"><g><path d="M 2.546875 -35.015625 L 12.6875 -35.015625 C 17.550781 -35.015625 21.707031 -33.347656 25.15625 -30.015625 C 28.613281 -26.691406 30.34375 -22.53125 30.34375 -17.53125 C 30.34375 -12.488281 28.625 -8.304688 25.1875 -4.984375 C 21.75 -1.660156 17.582031 0 12.6875 0 L 2.546875 0 Z M 10.53125 -7.125 L 11.75 -7.125 C 14.664062 -7.125 17.050781 -8.109375 18.90625 -10.078125 C 20.757812 -12.046875 21.703125 -14.515625 21.734375 -17.484375 C 21.734375 -20.453125 20.804688 -22.925781 18.953125 -24.90625 C 17.097656 -26.882812 14.695312 -27.875 11.75 -27.875 L 10.53125 -27.875 Z M 10.53125 -7.125 "/></g></g></g><g fill="#e4e2dd" fill-opacity="1"><g transform="translate(298.91656, 80.172771)"><g><path d="M 22.578125 -35.015625 L 22.578125 -28.015625 L 10.53125 -28.015625 L 10.53125 -21.046875 L 22.0625 -21.046875 L 22.0625 -14.046875 L 10.53125 -14.046875 L 10.53125 -7 L 22.578125 -7 L 22.578125 0 L 2.546875 0 L 2.546875 -35.015625 Z M 22.578125 -35.015625 "/></g></g></g><g fill="#e4e2dd" fill-opacity="1"><g transform="translate(319.920176, 80.172771)"><g><path d="M 13.5 0 L -1.1875 -35.015625 L 7.8125 -35.015625 L 16.640625 -12.015625 L 25.46875 -35.015625 L 34.453125 -35.015625 L 19.78125 0 Z M 13.5 0 "/></g></g></g><path stroke-linecap="butt" transform="matrix(0.75, 0, 0, 0.75, 9.124385, 99.625609)" fill="none" stroke-linejoin="miter" d="M 0.00081969 4.999188 L 84.240408 4.999188 " stroke="#e4e2dd" stroke-width="10" stroke-opacity="1" stroke-miterlimit="4"/><path stroke-linecap="butt" transform="matrix(0, 0.75, -0.75, 0, 16.612944, 43.170146)" fill="none" stroke-linejoin="miter" d="M 0.00230549 4.99955 L 82.273144 4.99955 " stroke="#e4e2dd" stroke-width="10" stroke-opacity="1" stroke-miterlimit="4"/><path stroke-linecap="butt" transform="matrix(-0.75, 0, 0, -0.75, 368.740234, 34.529147)" fill="none" stroke-linejoin="miter" d="M -0.00260411 5.002404 L 84.236984 5.002404 " stroke="#e4e2dd" stroke-width="10" stroke-opacity="1" stroke-miterlimit="4"/><path stroke-linecap="butt" transform="matrix(0, -0.75, 0.75, 0, 361.249026, 90.984613)" fill="none" stroke-linejoin="miter" d="M 0.00031799 5.001299 L 82.271156 5.001299 " stroke="#e4e2dd" stroke-width="10" stroke-opacity="1" stroke-miterlimit="4"/></svg>