<svg xmlns="http://www.w3.org/2000/svg" xmlns:xlink="http://www.w3.org/1999/xlink" width="500" zoomAndPan="magnify" viewBox="0 0 375 149.999998" height="200" preserveAspectRatio="xMidYMid meet" version="1.0"><defs><g/></defs><rect x="-37.5" width="450" fill="#ffffff" y="-15" height="179.999997" fill-opacity="1"/><rect x="-37.5" width="450" fill="#292929" y="-15" height="179.999997" fill-opacity="1"/><g fill="#e4e2dd" fill-opacity="1"><g transform="translate(19.012486, 89.479536)"><g><path d="M 4.8125 -27.40625 L 4.8125 -33.234375 C 4.84375 -37.335938 5.800781 -40.613281 7.6875 -43.0625 C 9.582031 -45.519531 12.203125 -46.75 15.546875 -46.75 C 16.972656 -46.75 18.335938 -46.546875 19.640625 -46.140625 C 20.941406 -45.734375 21.875 -45.316406 22.4375 -44.890625 L 23.359375 -44.296875 L 20.03125 -37.625 C 19.175781 -38.125 18.234375 -38.375 17.203125 -38.375 C 16.023438 -38.375 15.238281 -37.972656 14.84375 -37.171875 C 14.457031 -36.367188 14.265625 -34.96875 14.265625 -32.96875 L 14.265625 -27.40625 L 20.578125 -27.40625 L 20.578125 -20.203125 L 14.265625 -20.203125 L 14.265625 0 L 4.8125 0 L 4.8125 -20.203125 L 0.859375 -20.203125 L 0.859375 -27.40625 Z M 4.8125 -27.40625 "/></g></g></g><g fill="#e4e2dd" fill-opacity="1"><g transform="translate(34.505867, 89.479536)"><g><path d="M 9.296875 -11.4375 C 11.003906 -11.4375 12.453125 -10.835938 13.640625 -9.640625 C 14.835938 -8.453125 15.4375 -7.003906 15.4375 -5.296875 C 15.4375 -3.617188 14.835938 -2.179688 13.640625 -0.984375 C 12.453125 0.203125 11.003906 0.796875 9.296875 0.796875 C 7.617188 0.796875 6.179688 0.203125 4.984375 -0.984375 C 3.796875 -2.179688 3.203125 -3.617188 3.203125 -5.296875 C 3.203125 -7.003906 3.796875 -8.453125 4.984375 -9.640625 C 6.179688 -10.835938 7.617188 -11.4375 9.296875 -11.4375 Z M 9.296875 -11.4375 "/></g></g></g><g fill="#e4e2dd" fill-opacity="1"><g transform="translate(48.610072, 89.479536)"><g><path d="M 15.125 -28.21875 C 16.6875 -28.21875 18.234375 -28.035156 19.765625 -27.671875 C 21.296875 -27.316406 22.4375 -26.960938 23.1875 -26.609375 L 24.3125 -26.078125 L 21.21875 -19.875 C 19.082031 -21.019531 17.050781 -21.59375 15.125 -21.59375 C 14.050781 -21.59375 13.289062 -21.472656 12.84375 -21.234375 C 12.40625 -21.003906 12.1875 -20.570312 12.1875 -19.9375 C 12.1875 -19.789062 12.203125 -19.644531 12.234375 -19.5 C 12.273438 -19.363281 12.347656 -19.234375 12.453125 -19.109375 C 12.554688 -18.984375 12.648438 -18.875 12.734375 -18.78125 C 12.828125 -18.695312 12.976562 -18.597656 13.1875 -18.484375 C 13.40625 -18.378906 13.578125 -18.300781 13.703125 -18.25 C 13.828125 -18.195312 14.03125 -18.113281 14.3125 -18 C 14.601562 -17.894531 14.816406 -17.816406 14.953125 -17.765625 C 15.097656 -17.710938 15.335938 -17.628906 15.671875 -17.515625 C 16.015625 -17.410156 16.273438 -17.34375 16.453125 -17.3125 C 17.554688 -16.988281 18.519531 -16.628906 19.34375 -16.234375 C 20.164062 -15.847656 21.03125 -15.316406 21.9375 -14.640625 C 22.84375 -13.960938 23.546875 -13.109375 24.046875 -12.078125 C 24.546875 -11.046875 24.796875 -9.867188 24.796875 -8.546875 C 24.796875 -2.316406 20.46875 0.796875 11.8125 0.796875 C 9.851562 0.796875 7.988281 0.492188 6.21875 -0.109375 C 4.457031 -0.710938 3.1875 -1.316406 2.40625 -1.921875 L 1.234375 -2.890625 L 5.078125 -9.34375 C 5.359375 -9.101562 5.726562 -8.8125 6.1875 -8.46875 C 6.65625 -8.132812 7.492188 -7.671875 8.703125 -7.078125 C 9.921875 -6.492188 10.972656 -6.203125 11.859375 -6.203125 C 13.816406 -6.203125 14.796875 -6.859375 14.796875 -8.171875 C 14.796875 -8.773438 14.546875 -9.242188 14.046875 -9.578125 C 13.554688 -9.921875 12.710938 -10.304688 11.515625 -10.734375 C 10.316406 -11.160156 9.378906 -11.554688 8.703125 -11.921875 C 6.992188 -12.804688 5.640625 -13.8125 4.640625 -14.9375 C 3.648438 -16.0625 3.15625 -17.546875 3.15625 -19.390625 C 3.15625 -22.171875 4.234375 -24.335938 6.390625 -25.890625 C 8.546875 -27.441406 11.457031 -28.21875 15.125 -28.21875 Z M 15.125 -28.21875 "/></g></g></g><g fill="#e4e2dd" fill-opacity="1"><g transform="translate(70.354774, 89.479536)"><g><path d="M 5.078125 -3.390625 C 2.515625 -6.191406 1.234375 -9.617188 1.234375 -13.671875 C 1.234375 -17.734375 2.515625 -21.171875 5.078125 -23.984375 C 7.640625 -26.804688 10.898438 -28.21875 14.859375 -28.21875 C 18.492188 -28.21875 21.484375 -27.078125 23.828125 -24.796875 L 23.828125 -27.40625 L 33.296875 -27.40625 L 33.296875 0 L 23.9375 0 L 23.9375 -3.09375 L 23.828125 -3.09375 C 21.484375 -0.5 18.492188 0.796875 14.859375 0.796875 C 10.898438 0.796875 7.640625 -0.597656 5.078125 -3.390625 Z M 13.125 -18.328125 C 11.894531 -17.117188 11.28125 -15.566406 11.28125 -13.671875 C 11.28125 -11.785156 11.863281 -10.242188 13.03125 -9.046875 C 14.207031 -7.859375 15.757812 -7.265625 17.6875 -7.265625 C 19.539062 -7.265625 21.0625 -7.867188 22.25 -9.078125 C 23.445312 -10.296875 24.046875 -11.832031 24.046875 -13.6875 C 24.046875 -15.570312 23.429688 -17.117188 22.203125 -18.328125 C 20.972656 -19.535156 19.46875 -20.140625 17.6875 -20.140625 C 15.875 -20.140625 14.351562 -19.535156 13.125 -18.328125 Z M 13.125 -18.328125 "/></g></g></g><g fill="#e4e2dd" fill-opacity="1"><g transform="translate(102.30461, 89.479536)"><g><path d="M 3.203125 0 L 3.203125 -27.40625 L 12.671875 -27.40625 L 12.671875 -24.53125 L 12.765625 -24.53125 C 15.222656 -26.988281 17.84375 -28.21875 20.625 -28.21875 C 21.976562 -28.21875 23.320312 -28.035156 24.65625 -27.671875 C 26 -27.316406 27.285156 -26.765625 28.515625 -26.015625 C 29.742188 -25.273438 30.738281 -24.21875 31.5 -22.84375 C 32.269531 -21.46875 32.65625 -19.875 32.65625 -18.0625 L 32.65625 0 L 23.1875 0 L 23.1875 -15.5 C 23.1875 -16.925781 22.734375 -18.171875 21.828125 -19.234375 C 20.921875 -20.304688 19.738281 -20.84375 18.28125 -20.84375 C 16.851562 -20.84375 15.5625 -20.289062 14.40625 -19.1875 C 13.25 -18.082031 12.671875 -16.851562 12.671875 -15.5 L 12.671875 0 Z M 3.203125 0 "/></g></g></g><g fill="#e4e2dd" fill-opacity="1"><g transform="translate(133.078984, 89.479536)"><g><path d="M 17.796875 -20.46875 C 16.015625 -20.46875 14.484375 -19.804688 13.203125 -18.484375 C 11.921875 -17.171875 11.28125 -15.585938 11.28125 -13.734375 C 11.28125 -11.847656 11.921875 -10.242188 13.203125 -8.921875 C 14.484375 -7.609375 16.015625 -6.953125 17.796875 -6.953125 C 18.648438 -6.953125 19.457031 -7.054688 20.21875 -7.265625 C 20.988281 -7.484375 21.550781 -7.695312 21.90625 -7.90625 L 22.390625 -8.234375 L 25.59375 -1.65625 C 25.34375 -1.476562 24.992188 -1.253906 24.546875 -0.984375 C 24.109375 -0.722656 23.09375 -0.363281 21.5 0.09375 C 19.914062 0.5625 18.21875 0.796875 16.40625 0.796875 C 12.375 0.796875 8.835938 -0.613281 5.796875 -3.4375 C 2.753906 -6.269531 1.234375 -9.664062 1.234375 -13.625 C 1.234375 -17.613281 2.753906 -21.039062 5.796875 -23.90625 C 8.835938 -26.78125 12.375 -28.21875 16.40625 -28.21875 C 18.21875 -28.21875 19.890625 -28.003906 21.421875 -27.578125 C 22.953125 -27.148438 24.039062 -26.722656 24.6875 -26.296875 L 25.59375 -25.65625 L 22.390625 -19.1875 C 21.210938 -20.039062 19.679688 -20.46875 17.796875 -20.46875 Z M 17.796875 -20.46875 "/></g></g></g><g fill="#e4e2dd" fill-opacity="1"><g transform="translate(154.770253, 89.479536)"><g><path d="M 3.203125 0 L 3.203125 -45.953125 L 12.671875 -45.953125 L 12.671875 -24.53125 L 12.765625 -24.53125 C 15.222656 -26.988281 17.84375 -28.21875 20.625 -28.21875 C 21.976562 -28.21875 23.320312 -28.035156 24.65625 -27.671875 C 26 -27.316406 27.285156 -26.765625 28.515625 -26.015625 C 29.742188 -25.273438 30.738281 -24.21875 31.5 -22.84375 C 32.269531 -21.46875 32.65625 -19.875 32.65625 -18.0625 L 32.65625 0 L 23.1875 0 L 23.1875 -15.5 C 23.1875 -16.925781 22.734375 -18.171875 21.828125 -19.234375 C 20.921875 -20.304688 19.738281 -20.84375 18.28125 -20.84375 C 16.851562 -20.84375 15.5625 -20.289062 14.40625 -19.1875 C 13.25 -18.082031 12.671875 -16.851562 12.671875 -15.5 L 12.671875 0 Z M 3.203125 0 "/></g></g></g><g fill="#e4e2dd" fill-opacity="1"><g transform="translate(185.544627, 89.479536)"><g><path d="M 30.9375 -12.390625 L 11.0625 -12.390625 C 11.0625 -10.472656 11.679688 -9.050781 12.921875 -8.125 C 14.171875 -7.195312 15.53125 -6.734375 17 -6.734375 C 18.53125 -6.734375 19.738281 -6.9375 20.625 -7.34375 C 21.519531 -7.757812 22.535156 -8.570312 23.671875 -9.78125 L 30.515625 -6.359375 C 27.660156 -1.585938 22.921875 0.796875 16.296875 0.796875 C 12.160156 0.796875 8.613281 -0.613281 5.65625 -3.4375 C 2.707031 -6.269531 1.234375 -9.679688 1.234375 -13.671875 C 1.234375 -17.671875 2.707031 -21.09375 5.65625 -23.9375 C 8.613281 -26.789062 12.160156 -28.21875 16.296875 -28.21875 C 20.640625 -28.21875 24.175781 -26.960938 26.90625 -24.453125 C 29.632812 -21.941406 31 -18.351562 31 -13.6875 C 31 -13.039062 30.976562 -12.609375 30.9375 -12.390625 Z M 11.328125 -17.640625 L 21.75 -17.640625 C 21.53125 -19.054688 20.96875 -20.144531 20.0625 -20.90625 C 19.15625 -21.675781 17.988281 -22.0625 16.5625 -22.0625 C 15 -22.0625 13.753906 -21.648438 12.828125 -20.828125 C 11.898438 -20.015625 11.398438 -18.953125 11.328125 -17.640625 Z M 11.328125 -17.640625 "/></g></g></g><g fill="#e4e2dd" fill-opacity="1"><g transform="translate(213.220058, 89.479536)"><g><path d="M 29.71875 -27.40625 L 16.140625 -7.21875 L 28.640625 -7.21875 L 28.640625 0 L 0.265625 0 L 13.84375 -20.203125 L 2.515625 -20.203125 L 2.515625 -27.40625 Z M 29.71875 -27.40625 "/></g></g></g><g fill="#e4e2dd" fill-opacity="1"><g transform="translate(238.651416, 89.479536)"><g><path d="M 9.296875 -11.4375 C 11.003906 -11.4375 12.453125 -10.835938 13.640625 -9.640625 C 14.835938 -8.453125 15.4375 -7.003906 15.4375 -5.296875 C 15.4375 -3.617188 14.835938 -2.179688 13.640625 -0.984375 C 12.453125 0.203125 11.003906 0.796875 9.296875 0.796875 C 7.617188 0.796875 6.179688 0.203125 4.984375 -0.984375 C 3.796875 -2.179688 3.203125 -3.617188 3.203125 -5.296875 C 3.203125 -7.003906 3.796875 -8.453125 4.984375 -9.640625 C 6.179688 -10.835938 7.617188 -11.4375 9.296875 -11.4375 Z M 9.296875 -11.4375 "/></g></g></g><g fill="#e4e2dd" fill-opacity="1"><g transform="translate(252.755621, 89.479536)"><g><path d="M 3.203125 -44.078125 L 15.984375 -44.078125 C 22.109375 -44.078125 27.34375 -41.984375 31.6875 -37.796875 C 36.03125 -33.617188 38.203125 -28.375 38.203125 -22.0625 C 38.203125 -15.726562 36.035156 -10.46875 31.703125 -6.28125 C 27.378906 -2.09375 22.140625 0 15.984375 0 L 3.203125 0 Z M 13.25 -8.984375 L 14.796875 -8.984375 C 18.472656 -8.984375 21.476562 -10.21875 23.8125 -12.6875 C 26.144531 -15.164062 27.328125 -18.273438 27.359375 -22.015625 C 27.359375 -25.753906 26.191406 -28.867188 23.859375 -31.359375 C 21.523438 -33.859375 18.503906 -35.109375 14.796875 -35.109375 L 13.25 -35.109375 Z M 13.25 -8.984375 "/></g></g></g><g fill="#e4e2dd" fill-opacity="1"><g transform="translate(287.644118, 89.479536)"><g><path d="M 28.421875 -44.078125 L 28.421875 -35.265625 L 13.25 -35.265625 L 13.25 -26.5 L 27.78125 -26.5 L 27.78125 -17.6875 L 13.25 -17.6875 L 13.25 -8.8125 L 28.421875 -8.8125 L 28.421875 0 L 3.203125 0 L 3.203125 -44.078125 Z M 28.421875 -44.078125 "/></g></g></g><g fill="#e4e2dd" fill-opacity="1"><g transform="translate(314.090643, 89.479536)"><g><path d="M 17 0 L -1.5 -44.078125 L 9.828125 -44.078125 L 20.953125 -15.125 L 32.0625 -44.078125 L 43.390625 -44.078125 L 24.90625 0 Z M 17 0 "/></g></g></g><path stroke-linecap="butt" transform="matrix(0.748269, 0, 0, 0.748269, 6.256851, 115.479502)" fill="none" stroke-linejoin="miter" d="M 0.00128464 5.002418 L 84.430525 5.002418 " stroke="#e4e2dd" stroke-width="10" stroke-opacity="1" stroke-miterlimit="4"/><path stroke-linecap="butt" transform="matrix(0, 0.748269, -0.748269, 0, 13.735705, 59.016435)" fill="none" stroke-linejoin="miter" d="M -0.00108298 4.997683 L 82.465293 4.997683 " stroke="#e4e2dd" stroke-width="10" stroke-opacity="1" stroke-miterlimit="4"/><path stroke-linecap="butt" transform="matrix(-0.748269, 0, 0, -0.748269, 368.734729, 34.52049)" fill="none" stroke-linejoin="miter" d="M 0.000472845 5.002407 L 84.434933 5.002407 " stroke="#e4e2dd" stroke-width="10" stroke-opacity="1" stroke-miterlimit="4"/><path stroke-linecap="butt" transform="matrix(0, -0.748269, 0.748269, 0, 361.256584, 90.98356)" fill="none" stroke-linejoin="miter" d="M -0.00108932 4.997548 L 82.465287 4.997548 " stroke="#e4e2dd" stroke-width="10" stroke-opacity="1" stroke-miterlimit="4"/></svg>